<svg id="gallery" xmlns="http://www.w3.org/2000/svg" width="36.5" height="36.5" viewBox="0 0 36.5 36.5">
  <path id="Vector" d="M10.646,30.417h9.125c7.6,0,10.646-3.042,10.646-10.646V10.646C30.417,3.042,27.375,0,19.771,0H10.646C3.042,0,0,3.042,0,10.646v9.125C0,27.375,3.042,30.417,10.646,30.417Z" transform="translate(3.042 3.042)" fill="none" stroke="#292d32" stroke-linecap="round" stroke-linejoin="round" stroke-width="2"/>
  <path id="Vector-2" data-name="Vector" d="M6.083,3.042A3.042,3.042,0,1,1,3.042,0,3.042,3.042,0,0,1,6.083,3.042Z" transform="translate(10.646 9.125)" fill="none" stroke="#292d32" stroke-linecap="round" stroke-linejoin="round" stroke-width="2"/>
  <path id="Vector-3" data-name="Vector" d="M0,10.574,7.5,5.54a3.427,3.427,0,0,1,4.015.213l.5.441a3.391,3.391,0,0,0,4.289,0L22.63.764a3.391,3.391,0,0,1,4.289,0L29.4,2.893" transform="translate(4.061 18.246)" fill="none" stroke="#292d32" stroke-linecap="round" stroke-linejoin="round" stroke-width="2"/>
  <path id="Vector-4" data-name="Vector" d="M0,0H36.5V36.5H0Z" fill="none" opacity="0"/>
</svg>
