<svg xmlns="http://www.w3.org/2000/svg" xmlns:xlink="http://www.w3.org/1999/xlink" width="74" height="74" viewBox="0 0 74 74">
  <defs>
    <radialGradient id="radial-gradient" cx="0.286" cy="0.111" r="1.009" gradientTransform="translate(0 -0.008) scale(1 1.068)" gradientUnits="objectBoundingBox">
      <stop offset="0" stop-color="#48cae4"/>
      <stop offset="1" stop-color="#00b4d8"/>
    </radialGradient>
  </defs>
  <g id="Group_61" data-name="Group 61" transform="translate(-177 -831)">
    <circle id="Ellipse_1" data-name="Ellipse 1" cx="37" cy="37" r="37" transform="translate(177 831)" fill="url(#radial-gradient)"/>
    <g id="Group_45" data-name="Group 45" transform="translate(197.5 852.32)">
      <path id="Path_22" data-name="Path 22" d="M31.5,12.806H1.5" transform="translate(0 4.052)" fill="none" stroke="#fff" stroke-linecap="round" stroke-linejoin="round" stroke-width="2.5"/>
      <path id="Path_23" data-name="Path 23" d="M22.746,10.843V8.682A5.332,5.332,0,0,0,17.413,3.35H15.692" transform="translate(6.082)" fill="none" stroke="#fff" stroke-linecap="round" stroke-linejoin="round" stroke-width="2.5"/>
      <path id="Path_24" data-name="Path 24" d="M3.37,10.843V8.682A5.332,5.332,0,0,1,8.7,3.35h1.766" transform="translate(0.801)" fill="none" stroke="#fff" stroke-linecap="round" stroke-linejoin="round" stroke-width="2.5"/>
      <path id="Path_25" data-name="Path 25" d="M22.746,12.8v5.82a5.332,5.332,0,0,1-5.333,5.333H15.692" transform="translate(6.082 4.052)" fill="none" stroke="#fff" stroke-linecap="round" stroke-linejoin="round" stroke-width="2.5"/>
      <path id="Path_26" data-name="Path 26" d="M3.37,12.8v5.82A5.332,5.332,0,0,0,8.7,23.957h1.766" transform="translate(0.801 4.052)" fill="none" stroke="#fff" stroke-linecap="round" stroke-linejoin="round" stroke-width="2.5"/>
    </g>
  </g>
</svg>
