<svg xmlns="http://www.w3.org/2000/svg" width="25.676" height="26.313" viewBox="0 0 25.676 26.313">
  <path id="Vector" d="M20.732,5.263a2.162,2.162,0,0,1-1.908-1.171l-.947-1.908A4.343,4.343,0,0,0,14.351,0H11.338A4.346,4.346,0,0,0,7.8,2.184L6.852,4.092A2.162,2.162,0,0,1,4.944,5.263,4.938,4.938,0,0,0,.01,10.512L.695,21.379c.158,2.71,1.618,4.934,5.249,4.934H19.732c3.631,0,5.078-2.223,5.249-4.934l.684-10.867A4.938,4.938,0,0,0,20.732,5.263ZM10.865,6.907h3.947a.987.987,0,1,1,0,1.973H10.865a.987.987,0,1,1,0-1.973Zm1.973,14.3a4.447,4.447,0,1,1,4.447-4.447A4.45,4.45,0,0,1,12.838,21.208Z" transform="translate(0)" fill="#fff"/>
</svg>
