<svg xmlns="http://www.w3.org/2000/svg" xmlns:xlink="http://www.w3.org/1999/xlink" width="64" height="64" viewBox="0 0 64 64">
  <defs>
    <radialGradient id="radial-gradient" cx="0.036" cy="0.22" r="0.5" gradientUnits="objectBoundingBox">
      <stop offset="0" stop-color="#ff003d"/>
      <stop offset="1" stop-color="#ff3061"/>
    </radialGradient>
  </defs>
  <g id="Group_2022" data-name="Group 2022" transform="translate(0.176 0.398)">
    <circle id="Ellipse_166" data-name="Ellipse 166" cx="32" cy="32" r="32" transform="translate(-0.176 -0.398)" fill="url(#radial-gradient)"/>
    <g id="vuesax_bold_camera" data-name="vuesax/bold/camera" transform="translate(15.678 15.897)">
      <g id="camera">
        <path id="Vector" d="M20.732,5.263a2.162,2.162,0,0,1-1.908-1.171l-.947-1.908A4.343,4.343,0,0,0,14.351,0H11.338A4.346,4.346,0,0,0,7.8,2.184L6.852,4.092A2.162,2.162,0,0,1,4.944,5.263,4.938,4.938,0,0,0,.01,10.512L.695,21.379c.158,2.71,1.618,4.934,5.249,4.934H19.732c3.631,0,5.078-2.223,5.249-4.934l.684-10.867A4.938,4.938,0,0,0,20.732,5.263ZM10.865,6.907h3.947a.987.987,0,1,1,0,1.973H10.865a.987.987,0,1,1,0-1.973Zm1.973,14.3a4.447,4.447,0,1,1,4.447-4.447A4.45,4.45,0,0,1,12.838,21.208Z" transform="translate(2.95 2.631)" fill="#fff"/>
        <path id="Vector-2" data-name="Vector" d="M0,0H31.576V31.576H0Z" fill="none" opacity="0"/>
      </g>
    </g>
  </g>
</svg>
