<svg xmlns="http://www.w3.org/2000/svg" xmlns:xlink="http://www.w3.org/1999/xlink" width="93.377" height="76.131"
     viewBox="0 0 93.377 76.131">
    <defs>
        <linearGradient id="linear-gradient" x1="0.5" x2="0.5" y2="1" gradientUnits="objectBoundingBox">
            <stop offset="0" stop-color="#90e0ef"/>
            <stop offset="1" stop-color="#00b4d8"/>
        </linearGradient>
    </defs>
    <g id="Group_47" data-name="Group 47" transform="translate(-315.819 -286)">
        <g id="vuesax_bold_money-4" data-name="vuesax/bold/money-4" transform="translate(339.328 307.833) rotate(-16)">
            <g id="money-4">
                <path id="Vector" d="M0,0H56.486V56.486H0Z" fill="none" opacity="0"/>
                <path id="Vector-2" data-name="Vector"
                      d="M35.3,0H11.768C4.707,0,0,3.53,0,11.768V28.243c0,8.238,4.707,11.768,11.768,11.768H35.3c7.061,0,11.768-3.53,11.768-11.768V11.768C47.072,3.53,42.365,0,35.3,0ZM4.119,11.768a7.664,7.664,0,0,1,7.649-7.649H15.3a1.765,1.765,0,1,1,0,3.53h-3.53a4.139,4.139,0,0,0-4.119,4.119V15.3a1.765,1.765,0,1,1-3.53,0ZM15.3,35.892h-3.53a7.664,7.664,0,0,1-7.649-7.649v-3.53a1.765,1.765,0,1,1,3.53,0v3.53a4.139,4.139,0,0,0,4.119,4.119H15.3a1.765,1.765,0,1,1,0,3.53Zm8.238-8.826A7.061,7.061,0,1,1,30.6,20.006,7.051,7.051,0,0,1,23.536,27.066Zm19.417,1.177A7.664,7.664,0,0,1,35.3,35.892h-3.53a1.765,1.765,0,1,1,0-3.53H35.3a4.139,4.139,0,0,0,4.119-4.119v-3.53a1.765,1.765,0,1,1,3.53,0Zm0-12.945a1.765,1.765,0,1,1-3.53,0v-3.53A4.139,4.139,0,0,0,35.3,7.649h-3.53a1.765,1.765,0,1,1,0-3.53H35.3a7.664,7.664,0,0,1,7.649,7.649Z"
                      transform="translate(4.707 8.238)" fill="url(#linear-gradient)"/>
            </g>
        </g>
        <circle id="Ellipse_3" data-name="Ellipse 3" cx="3" cy="3" r="3" transform="translate(399.819 286)"
                fill="url(#linear-gradient)"/>
        <circle id="Ellipse_4" data-name="Ellipse 4" cx="5.5" cy="5.5" r="5.5" transform="translate(345.819 294)"
                opacity="0.37" fill="url(#linear-gradient)"/>
        <circle id="Ellipse_5" data-name="Ellipse 5" cx="2" cy="2" r="2" transform="translate(315.819 332)"
                opacity="0.88" fill="url(#linear-gradient)"/>
        <circle id="Ellipse_6" data-name="Ellipse 6" cx="2" cy="2" r="2" transform="translate(338.819 335)"
                fill="url(#linear-gradient)"/>
    </g>
</svg>
