<svg xmlns="http://www.w3.org/2000/svg" width="74" height="74" viewBox="0 0 74 74">
  <g id="vuesax_linear_key-square" data-name="vuesax/linear/key-square" transform="translate(-748 -188)">
    <g id="key-square" transform="translate(748 188)">
      <path id="Vector" d="M21.583,61.667h18.5c15.417,0,21.583-6.167,21.583-21.583v-18.5C61.667,6.167,55.5,0,40.083,0h-18.5C6.167,0,0,6.167,0,21.583v18.5C0,55.5,6.167,61.667,21.583,61.667Z" transform="translate(6.167 6.167)" fill="none" stroke="#00b4d8" stroke-linecap="round" stroke-linejoin="round" stroke-width="4.5"/>
      <path id="Vector-2" data-name="Vector" d="M30.147,21.876a12.788,12.788,0,0,1-12.888,3.176L9.272,33.007a3.248,3.248,0,0,1-2.528.833l-3.7-.493A3.152,3.152,0,0,1,.516,30.818l-.493-3.7A3.452,3.452,0,0,1,.855,24.59L8.81,16.635a12.834,12.834,0,1,1,21.337,5.242Z" transform="translate(20.05 20.088)" fill="none" stroke="#0077b6" stroke-linecap="round" stroke-linejoin="round" stroke-width="4.5"/>
      <path id="Vector-3" data-name="Vector" d="M2.621,2.652,0,0" transform="translate(29.6 47.545)" fill="none" stroke="#0077b6" stroke-linecap="round" stroke-linejoin="round" stroke-width="4.5"/>
      <path id="Vector-4" data-name="Vector" d="M.495.5H.522" transform="translate(40.805 32.492)" fill="none" stroke="#0077b6" stroke-linecap="round" stroke-linejoin="round" stroke-width="4.5"/>
      <path id="Vector-5" data-name="Vector" d="M0,0H74V74H0Z" transform="translate(74 74) rotate(180)" fill="none" opacity="0"/>
    </g>
  </g>
</svg>
