<svg id="vuesax_linear_clipboard-tick" data-name="vuesax/linear/clipboard-tick" xmlns="http://www.w3.org/2000/svg" width="36.622" height="36.622" viewBox="0 0 36.622 36.622">
  <g id="clipboard-tick" transform="translate(0)">
    <path id="Vector" d="M0,3.815,2.289,6.1,8.393,0" transform="translate(14.206 18.616)" fill="none" stroke="#ff003d" stroke-linecap="round" stroke-linejoin="round" stroke-width="2.5"/>
    <path id="Vector-2" data-name="Vector" d="M3.052,6.1h6.1c3.052,0,3.052-1.526,3.052-3.052C12.207,0,10.681,0,9.156,0h-6.1C1.526,0,0,0,0,3.052S1.526,6.1,3.052,6.1Z" transform="translate(12.207 3.052)" fill="none" stroke="#0077b6" stroke-linecap="round" stroke-linejoin="round" stroke-width="2.5"/>
    <path id="Vector-3" data-name="Vector" d="M19.837,0c5.081.275,7.63,2.152,7.63,9.125v9.156c0,6.1-1.526,9.156-9.156,9.156H9.156C1.526,27.436,0,24.384,0,18.281V9.125C0,2.167,2.548.275,7.63,0" transform="translate(4.578 6.134)" fill="none" stroke="#0077b6" stroke-linecap="round" stroke-linejoin="round" stroke-width="2.5"/>
    <path id="Vector-4" data-name="Vector" d="M0,0H36.622V36.622H0Z" fill="none" opacity="0"/>
  </g>
</svg>
