<svg id="cup" xmlns="http://www.w3.org/2000/svg" width="32" height="32" viewBox="0 0 32 32">
  <path id="Vector" d="M8,3.053H5A2.675,2.675,0,0,0,2.333,5.72v.333H1a1,1,0,1,0,0,2H17a1,1,0,1,0,0-2H15.667V5.72A2.675,2.675,0,0,0,13,3.053H10V0A8.376,8.376,0,0,1,9,.053,8.376,8.376,0,0,1,8,0Z" transform="translate(7 21.28)" fill="#fff"/>
  <path id="Vector-2" data-name="Vector" d="M21.6,12.853a6.523,6.523,0,0,0,2.267-1.493A7.279,7.279,0,0,0,25.92,6.427,3.392,3.392,0,0,0,22.493,3h-.747A5.327,5.327,0,0,0,16.96,0h-8A5.327,5.327,0,0,0,4.173,3H3.427A3.392,3.392,0,0,0,0,6.427,7.279,7.279,0,0,0,2.053,11.36,6.523,6.523,0,0,0,4.32,12.853a9.327,9.327,0,0,0,17.28,0ZM16.747,8.6,15.92,9.613a1,1,0,0,0-.213.64l.08,1.307a.857.857,0,0,1-1.267.92L13.307,12a1.227,1.227,0,0,0-.693,0l-1.213.48a.857.857,0,0,1-1.267-.92l.08-1.307A1,1,0,0,0,10,9.613L9.173,8.6a.859.859,0,0,1,.48-1.493l1.267-.32a1.058,1.058,0,0,0,.547-.413l.707-1.093a.862.862,0,0,1,1.573,0l.707,1.093A1.058,1.058,0,0,0,15,6.787l1.267.32A.859.859,0,0,1,16.747,8.6Z" transform="translate(3.04 2.667)" fill="#fff"/>
  <path id="Vector-3" data-name="Vector" d="M0,0H32V32H0Z" transform="translate(32 32) rotate(180)" fill="none" opacity="0"/>
</svg>
