<svg id="vuesax_bold_menu-board" data-name="vuesax/bold/menu-board" xmlns="http://www.w3.org/2000/svg" width="31" height="31" viewBox="0 0 31 31">
  <g id="menu-board" transform="translate(0 0)">
    <path id="Vector" d="M0,0H31V31H0Z" fill="none" opacity="0"/>
    <path id="Vector-2" data-name="Vector" d="M11,4.973l.762,12.775a.923.923,0,0,1-.233.685.9.9,0,0,1-.685.3H7.324l2.79-13.756ZM12.426,0l-.013.026a3.025,3.025,0,0,1-.077.956L2.816,18.458A2.877,2.877,0,0,1,0,20.667H10.85A2.854,2.854,0,0,0,13.7,17.593Z" transform="translate(15.991 7.75)" fill="#fff"/>
    <path id="Vector-3" data-name="Vector" d="M2.532,1.2A.976.976,0,0,0,1.821.024.986.986,0,0,0,.646.735L0,3.409H1.989Z" transform="translate(12.258 1.694)" fill="#fff"/>
    <path id="Vector-4" data-name="Vector" d="M2.48,1.173a.97.97,0,1,0-1.9-.4L0,3.446H1.989Z" transform="translate(20.835 1.682)" fill="#fff"/>
    <path id="Vector-5" data-name="Vector" d="M26.892,1.8A2.859,2.859,0,0,0,24.218.026H21.532l-.723,3.345a.976.976,0,0,1-.943.762.569.569,0,0,1-.207-.026.989.989,0,0,1-.749-1.15L19.543.013H12.955l-.814,3.358a.967.967,0,0,1-.943.736,1.423,1.423,0,0,1-.233-.026.97.97,0,0,1-.71-1.175L10.953,0H8.331A2.9,2.9,0,0,0,5.567,2.041L.129,19.543a2.921,2.921,0,0,0,2.764,3.785H19.866a2.877,2.877,0,0,0,2.816-2.209L27.034,3.643a3.025,3.025,0,0,0,.078-.956A2.583,2.583,0,0,0,26.892,1.8ZM17.7,16.546H7.362a.969.969,0,1,1,0-1.938H17.7a.969.969,0,0,1,0,1.938Zm1.292-5.167H8.654a.969.969,0,1,1,0-1.937H18.987a.969.969,0,1,1,0,1.937Z" transform="translate(1.292 5.089)" fill="#fff"/>
  </g>
</svg>
