<svg id="email_1_" data-name="email (1)" xmlns="http://www.w3.org/2000/svg" width="21.002" height="13.999" viewBox="0 0 21.002 13.999">
  <path id="Path_994" data-name="Path 994" d="M26.812,10.667H10.188A2.19,2.19,0,0,0,8,12.854v9.625a2.191,2.191,0,0,0,2.188,2.188H26.814A2.191,2.191,0,0,0,29,22.478V12.854A2.192,2.192,0,0,0,26.812,10.667Zm.438,4.733-7.534,3.938a2.683,2.683,0,0,1-1.217.3,2.712,2.712,0,0,1-1.217-.3L9.75,15.4V13.422l8.338,4.358a.909.909,0,0,0,.823,0l8.339-4.358V15.4Z" transform="translate(-8 -10.667)"/>
</svg>
