<svg xmlns="http://www.w3.org/2000/svg" width="28.295" height="28.295" viewBox="0 0 28.295 28.295">
  <g id="vuesax_linear_filter-search" data-name="vuesax/linear/filter-search" transform="translate(-492 -700)">
    <g id="filter-search" transform="translate(492 700)">
      <g id="Group" transform="translate(3.902 2.37)">
        <path id="Vector" d="M12.981,20.113a2.648,2.648,0,0,1-1.073,2.028l-1.662,1.073a2.426,2.426,0,0,1-3.69-2.028V14.879a4.52,4.52,0,0,0-.955-2.5L1.073,7.616A3.918,3.918,0,0,1,0,5.235V2.5A2.418,2.418,0,0,1,2.382,0H18.109a2.39,2.39,0,0,1,2.382,2.382V5A4.448,4.448,0,0,1,19.3,7.734" fill="none" stroke="#00b4d8" stroke-linecap="round" stroke-linejoin="round" stroke-width="2"/>
      </g>
      <g id="Group-2" data-name="Group" transform="translate(15.173 11.931)">
        <path id="Vector-2" data-name="Vector" d="M7.545,3.773A3.773,3.773,0,1,1,3.773,0,3.773,3.773,0,0,1,7.545,3.773Z" fill="none" stroke="#00b4d8" stroke-linecap="round" stroke-linejoin="round" stroke-width="2"/>
        <path id="Vector-3" data-name="Vector" d="M1.179,1.179,0,0" transform="translate(7.074 7.074)" fill="none" stroke="#00b4d8" stroke-linecap="round" stroke-linejoin="round" stroke-width="2"/>
      </g>
      <path id="Vector-4" data-name="Vector" d="M0,0H28.3V28.3H0Z" transform="translate(28.295 28.295) rotate(180)" fill="none" opacity="0"/>
    </g>
  </g>
</svg>
