<svg xmlns="http://www.w3.org/2000/svg" width="20.963" height="15.969" viewBox="0 0 20.963 15.969">
  <g id="gmail" transform="translate(0 0)">
    <g id="Group_1269" data-name="Group 1269" transform="translate(1.367 0)">
      <path id="Path_1186" data-name="Path 1186" d="M51.869,122.808l-1.338,13.438H34.457l-1.078-13.178,9.115,5.1Z" transform="translate(-33.379 -120.277)" fill="#f2f2f2"/>
      <path id="Path_1187" data-name="Path 1187" d="M55.956,60.983l-8.921,8.38-8.921-8.38H55.956Z" transform="translate(-37.92 -60.983)" fill="#f2f2f2"/>
    </g>
    <path id="Path_1188" data-name="Path 1188" d="M2.445,113.749v12.1H.988A.989.989,0,0,1,0,124.86V111.967l1.6.044Z" transform="translate(0 -109.88)" fill="#f14336"/>
    <path id="Path_1189" data-name="Path 1189" d="M454.733,109.091v12.894a.989.989,0,0,1-.989.988h-1.456v-12.1l.806-1.9Z" transform="translate(-433.77 -107.003)" fill="#d32e2a"/>
    <path id="Path_1190" data-name="Path 1190" d="M20.963,61.971v1.1l-2.445,1.782L10.481,70.71,2.445,64.853,0,63.07v-1.1a.989.989,0,0,1,.988-.988h.572l8.921,6.5,8.921-6.5h.572A.989.989,0,0,1,20.963,61.971Z" transform="translate(0 -60.983)" fill="#f14336"/>
    <path id="Path_1191" data-name="Path 1191" d="M2.445,113.749,0,113.37v-1.4Z" transform="translate(0 -109.88)" fill="#d32e2a"/>
  </g>
</svg>
