<svg xmlns="http://www.w3.org/2000/svg" width="26.083" height="18.748" viewBox="0 0 26.083 18.748">
  <g id="graduation-hat" transform="translate(0 -71.981)">
    <path id="Path_1200" data-name="Path 1200" d="M25.593,77.346l-12.227-5.3a.815.815,0,0,0-.648,0L.49,77.346a.816.816,0,0,0,0,1.5l4.4,1.907v5.089c0,2.743,3.581,4.891,8.151,4.891s8.151-2.148,8.151-4.891V80.749l.815-.353v8.7a.815.815,0,1,0,1.63,0v-9.41l1.954-.847A.816.816,0,0,0,25.593,77.346Zm-6.03,8.492c0,.768-.63,1.559-1.729,2.169a11.056,11.056,0,0,1-9.583,0c-1.1-.611-1.729-1.4-1.729-2.169V81.455l6.2,2.685a.815.815,0,0,0,.648,0l6.2-2.685Z" transform="translate(0 0)" fill="#ff004e"/>
  </g>
</svg>
