<svg xmlns="http://www.w3.org/2000/svg" width="24.5" height="24.5" viewBox="0 0 24.5 24.5">
  <path id="Path_959" data-name="Path 959" d="M17.031.326a1.114,1.114,0,0,1,1.575,0l5.568,5.568a1.114,1.114,0,0,1,0,1.575l-16.7,16.7a1.114,1.114,0,0,1-1.575,0L.326,18.606a1.114,1.114,0,0,1,0-1.575L3.11,14.247,14.247,3.11Zm-2,5.146L13.825,6.682l2.553,2.553A1.114,1.114,0,1,1,14.8,10.81L12.25,8.257,11.041,9.466l1.44,1.44a1.114,1.114,0,0,1-1.575,1.575l-1.44-1.44L8.257,12.25,10.81,14.8a1.114,1.114,0,1,1-1.575,1.575L6.682,13.825,5.473,15.034l1.44,1.44a1.114,1.114,0,1,1-1.575,1.575L3.9,16.609,2.689,17.818l3.993,3.993,15.13-15.13L17.818,2.689,16.609,3.9l1.44,1.44a1.114,1.114,0,1,1-1.575,1.575Z" fill-rule="evenodd"/>
</svg>
