<svg id="instagram" xmlns="http://www.w3.org/2000/svg" xmlns:xlink="http://www.w3.org/1999/xlink" width="20.186" height="20.186" viewBox="0 0 20.186 20.186">
  <defs>
    <linearGradient id="linear-gradient" x1="0.084" y1="0.916" x2="0.916" y2="0.084" gradientUnits="objectBoundingBox">
      <stop offset="0" stop-color="#ffd600"/>
      <stop offset="0.5" stop-color="#ff0100"/>
      <stop offset="1" stop-color="#d800b9"/>
    </linearGradient>
    <linearGradient id="linear-gradient-2" x1="0.146" y1="0.854" x2="0.854" y2="0.146" gradientUnits="objectBoundingBox">
      <stop offset="0" stop-color="#ff6400"/>
      <stop offset="0.5" stop-color="#ff0100"/>
      <stop offset="1" stop-color="#fd0056"/>
    </linearGradient>
    <linearGradient id="linear-gradient-3" x1="0.146" y1="0.854" x2="0.854" y2="0.146" gradientUnits="objectBoundingBox">
      <stop offset="0" stop-color="#f30072"/>
      <stop offset="1" stop-color="#e50097"/>
    </linearGradient>
  </defs>
  <path id="Path_1194" data-name="Path 1194" d="M20.125,5.932a7.41,7.41,0,0,0-.469-2.45,4.947,4.947,0,0,0-1.164-1.788A4.948,4.948,0,0,0,16.7.529a7.408,7.408,0,0,0-2.45-.469C13.178.012,12.834,0,10.093,0S7.008.012,5.932.061A7.411,7.411,0,0,0,3.482.53,4.947,4.947,0,0,0,1.694,1.694,4.948,4.948,0,0,0,.529,3.481a7.409,7.409,0,0,0-.469,2.45C.012,7.008,0,7.352,0,10.093s.012,3.085.061,4.161A7.408,7.408,0,0,0,.53,16.7a4.946,4.946,0,0,0,1.164,1.788,4.945,4.945,0,0,0,1.788,1.164,7.406,7.406,0,0,0,2.45.469c1.077.049,1.42.061,4.161.061s3.085-.012,4.161-.061a7.407,7.407,0,0,0,2.45-.469A5.16,5.16,0,0,0,19.656,16.7a7.407,7.407,0,0,0,.469-2.45c.049-1.077.061-1.42.061-4.161s-.012-3.085-.061-4.161Zm-1.817,8.24a5.584,5.584,0,0,1-.347,1.874,3.342,3.342,0,0,1-1.916,1.916,5.584,5.584,0,0,1-1.874.347c-1.064.049-1.383.059-4.078.059s-3.014-.01-4.079-.059a5.586,5.586,0,0,1-1.874-.347,3.128,3.128,0,0,1-1.16-.755,3.127,3.127,0,0,1-.755-1.16,5.584,5.584,0,0,1-.347-1.874c-.049-1.064-.059-1.383-.059-4.078s.01-3.014.059-4.079A5.588,5.588,0,0,1,2.225,4.14,3.129,3.129,0,0,1,2.98,2.98,3.125,3.125,0,0,1,4.14,2.225a5.583,5.583,0,0,1,1.874-.348c1.064-.049,1.383-.059,4.078-.059h0c2.695,0,3.014.01,4.079.059a5.585,5.585,0,0,1,1.874.347,3.129,3.129,0,0,1,1.16.755,3.125,3.125,0,0,1,.755,1.161,5.579,5.579,0,0,1,.348,1.874c.049,1.064.059,1.383.059,4.078s-.01,3.014-.059,4.079Zm0,0" transform="translate(0 0)" fill="url(#linear-gradient)"/>
  <path id="Path_1195" data-name="Path 1195" d="M129.722,124.539a5.183,5.183,0,1,0,5.183,5.183A5.183,5.183,0,0,0,129.722,124.539Zm0,8.547a3.364,3.364,0,1,1,3.364-3.364A3.364,3.364,0,0,1,129.722,133.086Zm0,0" transform="translate(-119.629 -119.629)" fill="url(#linear-gradient-2)"/>
  <path id="Path_1196" data-name="Path 1196" d="M364.352,89.837a1.211,1.211,0,1,1-1.211-1.211A1.211,1.211,0,0,1,364.352,89.837Zm0,0" transform="translate(-347.66 -85.131)" fill="url(#linear-gradient-3)"/>
</svg>
