<svg id="smartphone_1_" data-name="smartphone (1)" xmlns="http://www.w3.org/2000/svg" width="16.515" height="24.773" viewBox="0 0 16.515 24.773">
  <g id="bold">
    <path id="Path_1011" data-name="Path 1011" d="M24.344,8H13.505a2.841,2.841,0,0,0-2.838,2.838v19.1a2.841,2.841,0,0,0,2.838,2.838H24.344a2.841,2.841,0,0,0,2.838-2.838v-19.1A2.841,2.841,0,0,0,24.344,8Zm.774,21.678a1.033,1.033,0,0,1-1.033,1.033H13.762a1.032,1.032,0,0,1-1.031-1.033V11.1a1.033,1.033,0,0,1,1.033-1.033h.516A1.033,1.033,0,0,1,15.312,11.1a1.033,1.033,0,0,0,1.033,1.033h5.161A1.033,1.033,0,0,0,22.539,11.1a1.033,1.033,0,0,1,1.033-1.033h.516A1.032,1.032,0,0,1,25.118,11.1Z" transform="translate(-10.667 -8)"/>
  </g>
</svg>
