<svg id="money-4" xmlns="http://www.w3.org/2000/svg" width="33.772" height="33.772" viewBox="0 0 33.772 33.772">
  <path id="Vector" d="M0,0H33.772V33.772H0Z" fill="none" opacity="0"/>
  <path id="Vector-2" data-name="Vector" d="M21.107,0H7.036C2.814,0,0,2.111,0,7.036v9.85c0,4.925,2.814,7.036,7.036,7.036H21.107c4.221,0,7.036-2.111,7.036-7.036V7.036C28.143,2.111,25.329,0,21.107,0ZM2.463,7.036A4.582,4.582,0,0,1,7.036,2.463H9.146a1.055,1.055,0,1,1,0,2.111H7.036A2.474,2.474,0,0,0,4.573,7.036V9.146a1.055,1.055,0,1,1-2.111,0ZM9.146,21.459H7.036a4.582,4.582,0,0,1-4.573-4.573V14.775a1.055,1.055,0,1,1,2.111,0v2.111a2.474,2.474,0,0,0,2.463,2.463H9.146a1.055,1.055,0,1,1,0,2.111Zm4.925-5.277a4.221,4.221,0,1,1,4.221-4.221A4.216,4.216,0,0,1,14.072,16.182Zm11.609.7a4.582,4.582,0,0,1-4.573,4.573H19a1.055,1.055,0,0,1,0-2.111h2.111a2.474,2.474,0,0,0,2.463-2.463V14.775a1.055,1.055,0,1,1,2.111,0Zm0-7.739a1.055,1.055,0,1,1-2.111,0V7.036a2.474,2.474,0,0,0-2.463-2.463H19a1.055,1.055,0,0,1,0-2.111h2.111a4.582,4.582,0,0,1,4.573,4.573Z" transform="translate(2.814 4.925)" fill="#00b4d8"/>
</svg>
