<svg id="money-4" xmlns="http://www.w3.org/2000/svg" width="31.469" height="31.469" viewBox="0 0 31.469 31.469">
  <path id="Vector" d="M19.668,22.291H6.556C2.622,22.291,0,20.324,0,15.735V6.556C0,1.967,2.622,0,6.556,0H19.668c3.934,0,6.556,1.967,6.556,6.556v9.178C26.224,20.324,23.6,22.291,19.668,22.291Z" transform="translate(2.622 4.589)" fill="none" stroke="#828282" stroke-linecap="round" stroke-linejoin="round" stroke-width="2"/>
  <path id="Vector-2" data-name="Vector" d="M7.867,3.934A3.934,3.934,0,1,1,3.934,0,3.934,3.934,0,0,1,7.867,3.934Z" transform="translate(11.801 11.801)" fill="none" stroke="#828282" stroke-linecap="round" stroke-linejoin="round" stroke-width="2"/>
  <path id="Vector-3" data-name="Vector" d="M5.245,0H3.278A3.279,3.279,0,0,0,0,3.278V5.245" transform="translate(5.9 7.867)" fill="none" stroke="#828282" stroke-linecap="round" stroke-linejoin="round" stroke-width="2"/>
  <path id="Vector-4" data-name="Vector" d="M0,0H1.967A3.279,3.279,0,0,1,5.245,3.278V5.245" transform="translate(20.324 7.867)" fill="none" stroke="#828282" stroke-linecap="round" stroke-linejoin="round" stroke-width="2"/>
  <path id="Vector-5" data-name="Vector" d="M5.245,5.245H3.278A3.279,3.279,0,0,1,0,1.967V0" transform="translate(5.9 18.357)" fill="none" stroke="#828282" stroke-linecap="round" stroke-linejoin="round" stroke-width="2"/>
  <path id="Vector-6" data-name="Vector" d="M0,5.245H1.967A3.279,3.279,0,0,0,5.245,1.967V0" transform="translate(20.324 18.357)" fill="none" stroke="#828282" stroke-linecap="round" stroke-linejoin="round" stroke-width="2"/>
  <path id="Vector-7" data-name="Vector" d="M0,0H31.469V31.469H0Z" fill="none" opacity="0"/>
</svg>
