<svg xmlns="http://www.w3.org/2000/svg" width="82" height="82" viewBox="0 0 82 82">
  <g id="vuesax_bulk_lock" data-name="vuesax/bulk/lock" transform="translate(-172 -252)">
    <g id="lock" transform="translate(172 252)">
      <path id="Vector" d="M11.138,5.569A5.569,5.569,0,1,1,5.569,0,5.569,5.569,0,0,1,11.138,5.569Z" transform="translate(35.431 48.141)" fill="#d9d9d9" opacity="0.4"/>
      <path id="Vector-2" data-name="Vector" d="M50.054,0H18.279C4.271,0,0,4.271,0,18.279v6.355C0,38.642,4.271,42.913,18.279,42.913H50.054c14.008,0,18.279-4.271,18.279-18.279V18.279C68.333,4.271,64.063,0,50.054,0ZM34.167,31.775A10.318,10.318,0,1,1,44.485,21.457,10.331,10.331,0,0,1,34.167,31.775Z" transform="translate(6.833 32.253)" fill="#d9d9d9"/>
      <path id="Vector-3" data-name="Vector" d="M4.783,25.454v-4c0-10.011,2.836-16.673,16.673-16.673S38.13,11.446,38.13,21.457v4a40.7,40.7,0,0,1,4.783.308V21.457C42.913,12.232,40.693,0,21.457,0S0,12.232,0,21.457v4.271A40.626,40.626,0,0,1,4.783,25.454Z" transform="translate(19.543 6.833)" fill="#d9d9d9" opacity="0.4"/>
      <path id="Vector-4" data-name="Vector" d="M0,0H82V82H0Z" fill="none" opacity="0"/>
    </g>
  </g>
</svg>
