<svg xmlns="http://www.w3.org/2000/svg" xmlns:xlink="http://www.w3.org/1999/xlink" width="81" height="81" viewBox="0 0 81 81">
  <defs>
    <linearGradient id="linear-gradient" x1="0.5" x2="0.5" y2="1" gradientUnits="objectBoundingBox">
      <stop offset="0" stop-color="#e9e9e9"/>
      <stop offset="1" stop-color="#dedede"/>
    </linearGradient>
  </defs>
  <g id="vuesax_bold_emoji-sad" data-name="vuesax/bold/emoji-sad" transform="translate(-556 -380)">
    <g id="emoji-sad" transform="translate(556 380)">
      <path id="Vector" d="M47.891,0H19.609C7.324,0,0,7.324,0,19.609V47.858C0,60.176,7.324,67.5,19.609,67.5H47.858c12.285,0,19.609-7.324,19.609-19.609V19.609C67.5,7.324,60.176,0,47.891,0ZM15.086,24.57a2.546,2.546,0,0,1,0-3.577,11.265,11.265,0,0,1,15.863,0,2.546,2.546,0,0,1,0,3.577,2.526,2.526,0,0,1-3.578,0,6.172,6.172,0,0,0-8.707,0A2.486,2.486,0,0,1,15.086,24.57ZM45.9,54.27H21.6a4.3,4.3,0,0,1-4.286-4.32,16.47,16.47,0,1,1,32.94,0A4.4,4.4,0,0,1,45.9,54.27Zm6.514-29.7a2.546,2.546,0,0,1-3.578,0,6.172,6.172,0,0,0-8.707,0,2.526,2.526,0,0,1-3.577,0,2.546,2.546,0,0,1,0-3.577,11.265,11.265,0,0,1,15.863,0A2.546,2.546,0,0,1,52.414,24.57Z" transform="translate(6.75 6.75)" fill="url(#linear-gradient)"/>
      <path id="Vector-2" data-name="Vector" d="M0,0H81V81H0Z" transform="translate(81 81) rotate(180)" fill="none" opacity="0"/>
    </g>
  </g>
</svg>
