<svg id="notification" xmlns="http://www.w3.org/2000/svg" width="31" height="31" viewBox="0 0 31 31">
  <path id="Vector" d="M10.393,0a7.756,7.756,0,0,0-7.75,7.75v3.733a6.172,6.172,0,0,1-.736,2.661L.421,16.611A2.479,2.479,0,0,0,1.816,20.4a27.023,27.023,0,0,0,17.14,0,2.586,2.586,0,0,0,1.4-3.785l-1.485-2.467a6.342,6.342,0,0,1-.723-2.661V7.75A7.773,7.773,0,0,0,10.393,0Z" transform="translate(5.133 3.759)" fill="none" stroke="#fff" stroke-linecap="round" stroke-width="2.5"/>
  <path id="Vector-2" data-name="Vector" d="M4.779,1.627a7.82,7.82,0,0,0-1.24-.258A8.724,8.724,0,0,0,0,1.627a2.568,2.568,0,0,1,4.779,0Z" transform="translate(13.136 2.506)" fill="none" stroke="#fff" stroke-linecap="round" stroke-linejoin="round" stroke-width="2.5"/>
  <path id="Vector-3" data-name="Vector" d="M7.75,0A3.886,3.886,0,0,1,3.875,3.875,3.889,3.889,0,0,1,1.137,2.738,3.889,3.889,0,0,1,0,0" transform="translate(11.651 24.619)" fill="none" stroke="#fff" stroke-width="2.5"/>
  <path id="Vector-4" data-name="Vector" d="M0,0H31V31H0Z" fill="none" opacity="0"/>
</svg>
