<svg id="setting-2" xmlns="http://www.w3.org/2000/svg" width="37.194" height="37.194" viewBox="0 0 37.194 37.194">
  <path id="Vector" d="M9.3,4.649A4.649,4.649,0,1,1,4.649,0,4.649,4.649,0,0,1,9.3,4.649Z" transform="translate(13.948 13.948)" fill="none" stroke="#ff003d" stroke-linecap="round" stroke-linejoin="round" stroke-width="2.5"/>
  <path id="Vector-2" data-name="Vector" d="M0,15.992V13.264A2.953,2.953,0,0,1,2.945,10.32C5.75,10.32,6.9,8.336,5.486,5.9A2.943,2.943,0,0,1,6.571,1.889L9.252.355a2.587,2.587,0,0,1,3.533.93l.17.294c1.395,2.433,3.688,2.433,5.1,0l.17-.294a2.587,2.587,0,0,1,3.533-.93L24.44,1.889A2.943,2.943,0,0,1,25.525,5.9c-1.41,2.433-.263,4.417,2.542,4.417a2.953,2.953,0,0,1,2.945,2.945v2.728a2.953,2.953,0,0,1-2.945,2.945c-2.805,0-3.952,1.984-2.542,4.417a2.939,2.939,0,0,1-1.085,4.014L21.759,28.9a2.587,2.587,0,0,1-3.533-.93l-.17-.294c-1.395-2.433-3.688-2.433-5.1,0l-.17.294a2.587,2.587,0,0,1-3.533.93L6.571,27.367a2.943,2.943,0,0,1-1.085-4.014c1.41-2.433.263-4.417-2.542-4.417A2.953,2.953,0,0,1,0,15.992Z" transform="translate(3.1 3.969)" fill="none" stroke="#0077b6" stroke-linecap="round" stroke-linejoin="round" stroke-width="2.5"/>
  <path id="Vector-3" data-name="Vector" d="M0,0H37.194V37.194H0Z" fill="none" opacity="0"/>
</svg>
