<svg id="smartphone_3_" data-name="smartphone (3)" xmlns="http://www.w3.org/2000/svg" width="17.67" height="29.45" viewBox="0 0 17.67 29.45">
  <g id="Group_1273" data-name="Group 1273" transform="translate(7.853 2.454)">
    <g id="Group_1272" data-name="Group 1272" transform="translate(0)">
      <path id="Path_1192" data-name="Path 1192" d="M242.614,42.667h-2.945a.736.736,0,0,0,0,1.472h2.945a.736.736,0,0,0,0-1.472Z" transform="translate(-238.933 -42.667)" fill="#0080ff"/>
    </g>
  </g>
  <g id="Group_1275" data-name="Group 1275" transform="translate(0)">
    <g id="Group_1274" data-name="Group 1274" transform="translate(0)">
      <path id="Path_1193" data-name="Path 1193" d="M117.125,0h-11.78A2.949,2.949,0,0,0,102.4,2.945V26.5a2.949,2.949,0,0,0,2.945,2.945h11.78A2.949,2.949,0,0,0,120.07,26.5V2.945A2.949,2.949,0,0,0,117.125,0ZM118.6,26.5a1.472,1.472,0,0,1-1.472,1.472h-11.78a1.472,1.472,0,0,1-1.472-1.472V2.945a1.472,1.472,0,0,1,1.472-1.472h11.78A1.472,1.472,0,0,1,118.6,2.945Z" transform="translate(-102.4)" fill="#0080ff"/>
    </g>
  </g>
  <g id="Group_1277" data-name="Group 1277" transform="translate(7.362 24.05)">
    <g id="Group_1276" data-name="Group 1276">
      <ellipse id="Ellipse_107" data-name="Ellipse 107" cx="1.472" cy="1.472" rx="1.472" ry="1.472" fill="#0080ff"/>
    </g>
  </g>
  <g id="Group_1279" data-name="Group 1279" transform="translate(5.399 2.454)">
    <g id="Group_1278" data-name="Group 1278" transform="translate(0)">
      <ellipse id="Ellipse_108" data-name="Ellipse 108" cx="0.736" cy="0.736" rx="0.736" ry="0.736" fill="#0080ff"/>
    </g>
  </g>
</svg>
