<svg id="vuesax_linear_sticker" data-name="vuesax/linear/sticker" xmlns="http://www.w3.org/2000/svg" width="28.028" height="28.028" viewBox="0 0 28.028 28.028">
  <g id="sticker" transform="translate(0 0)">
    <path id="Vector" d="M23.311,12.684a3.893,3.893,0,0,1-.117.642,7,7,0,0,0-9.868,9.868,3.893,3.893,0,0,1-.642.117,11.8,11.8,0,0,1-3.06-.128A11.685,11.685,0,1,1,23.183,9.624,11.8,11.8,0,0,1,23.311,12.684Z" transform="translate(2.3 2.335)" fill="none" stroke="#292d32" stroke-linecap="round" stroke-linejoin="round" stroke-width="1.8"/>
    <path id="Vector-2" data-name="Vector" d="M11.515,1.647a3.487,3.487,0,0,1-.9,1.518L3.165,10.616a3.487,3.487,0,0,1-1.518.9,7,7,0,0,1,9.868-9.868Z" transform="translate(13.979 14.014)" fill="none" stroke="#292d32" stroke-linecap="round" stroke-linejoin="round" stroke-width="1.8"/>
    <path id="Vector-3" data-name="Vector" d="M0,0H28.028V28.028H0Z" fill="none" opacity="0"/>
  </g>
</svg>
