<svg xmlns="http://www.w3.org/2000/svg" xmlns:xlink="http://www.w3.org/1999/xlink" width="16.665" height="16.665" viewBox="0 0 16.665 16.665">
  <defs>
    <linearGradient id="linear-gradient" x1="0.5" y1="-0.158" x2="0.5" y2="1" gradientUnits="objectBoundingBox">
      <stop offset="0" stop-color="#ffd000"/>
      <stop offset="1" stop-color="#f80"/>
    </linearGradient>
  </defs>
  <g id="surface1" transform="translate(-191.667 138.333)">
    <path id="Path_1201" data-name="Path 1201" d="M16.177,1.2H14.038q.012-.355.012-.715A.488.488,0,0,0,13.562,0H3.1a.488.488,0,0,0-.488.488q0,.359.012.715H.488A.488.488,0,0,0,0,1.691,10.582,10.582,0,0,0,1.61,7.5a5.094,5.094,0,0,0,3.87,2.513,5.013,5.013,0,0,0,1.057.888v2.17H5.718a1.8,1.8,0,0,0-1.8,1.8v.819H3.887a.488.488,0,0,0,0,.976h8.89a.488.488,0,0,0,0-.976h-.035V14.87a1.8,1.8,0,0,0-1.8-1.8h-.819V10.9a5.01,5.01,0,0,0,1.057-.888A5.094,5.094,0,0,0,15.055,7.5a10.582,10.582,0,0,0,1.61-5.812A.488.488,0,0,0,16.177,1.2ZM2.423,6.962A9.41,9.41,0,0,1,.987,2.179H2.681A16.315,16.315,0,0,0,4.2,8.1q.2.391.408.738A4.709,4.709,0,0,1,2.423,6.962Zm6.729,6.112H7.513V11.328a3.177,3.177,0,0,0,1.638,0Zm5.091-6.112A4.709,4.709,0,0,1,12.059,8.84q.212-.348.408-.738a16.318,16.318,0,0,0,1.517-5.923h1.695A9.41,9.41,0,0,1,14.242,6.962Zm0,0" transform="translate(191.667 -138.333)" fill="url(#linear-gradient)"/>
  </g>
</svg>
