<svg xmlns="http://www.w3.org/2000/svg" width="77.5" height="77.5" viewBox="0 0 77.5 77.5">
  <g id="vuesax_bulk_trash" data-name="vuesax/bulk/trash" transform="translate(-108 -188)">
    <g id="trash" transform="translate(108 188)">
      <path id="Vector" d="M60.784,12.852c-5.2-.517-10.4-.9-15.629-1.195v-.032l-.71-4.2C43.961,4.456,43.25,0,35.694,0h-8.46C19.709,0,19,4.262,18.482,7.395L17.8,11.528c-3,.194-6.006.388-9.009.678l-6.587.646a2.416,2.416,0,1,0,.452,4.811l6.588-.646c16.921-1.679,33.971-1.033,51.085.678h.258a2.446,2.446,0,0,0,2.422-2.2A2.475,2.475,0,0,0,60.784,12.852Z" transform="translate(7.254 4.036)" fill="#d8d8d8"/>
      <path id="Vector-2" data-name="Vector" d="M47.8,1.259A4.083,4.083,0,0,0,44.86,0H4.043A4.028,4.028,0,0,0,1.1,1.259a4.159,4.159,0,0,0-1.1,3.035l2,33.131c.355,4.908.807,11.044,12.077,11.044H34.817c11.27,0,11.722-6.1,12.077-11.044l2-33.1A4.187,4.187,0,0,0,47.8,1.259Z" transform="translate(14.299 25.026)" fill="#d8d8d8" opacity="0.399"/>
      <path id="Vector_Stroke_" data-name="Vector (Stroke)" d="M0,2.422A2.422,2.422,0,0,1,2.422,0H13.175a2.422,2.422,0,0,1,0,4.844H2.422A2.422,2.422,0,0,1,0,2.422Z" transform="translate(30.935 52.474)" fill="#d8d8d8"/>
      <path id="Vector_Stroke_2" data-name="Vector (Stroke)" d="M0,2.422A2.422,2.422,0,0,1,2.422,0H18.568a2.422,2.422,0,0,1,0,4.844H2.422A2.422,2.422,0,0,1,0,2.422Z" transform="translate(28.255 39.557)" fill="#d8d8d8"/>
      <path id="Vector-3" data-name="Vector" d="M0,0H77.5V77.5H0Z" fill="none" opacity="0"/>
    </g>
  </g>
</svg>
