<svg id="user-octagon" xmlns="http://www.w3.org/2000/svg" width="36.508" height="36.508" viewBox="0 0 36.508 36.508">
  <path id="Vector" d="M27.639,10.009v10.4a4.828,4.828,0,0,1-2.388,4.153l-9.036,5.218a4.812,4.812,0,0,1-4.792,0L2.388,24.567A4.791,4.791,0,0,1,0,20.414v-10.4A4.828,4.828,0,0,1,2.388,5.856L11.424.639a4.812,4.812,0,0,1,4.792,0l9.036,5.218A4.809,4.809,0,0,1,27.639,10.009Z" transform="translate(4.427 3.042)" fill="none" stroke="#0077b6" stroke-linecap="round" stroke-linejoin="round" stroke-width="2.5"/>
  <g id="Group" transform="translate(12.169 9.644)">
    <path id="Vector-2" data-name="Vector" d="M7.089,3.544A3.544,3.544,0,1,1,3.544,0,3.544,3.544,0,0,1,7.089,3.544Z" transform="translate(2.54 0)" fill="none" stroke="#ff003d" stroke-linecap="round" stroke-linejoin="round" stroke-width="2.5"/>
    <path id="Vector-3" data-name="Vector" d="M12.169,4.959C12.169,2.221,9.446,0,6.085,0S0,2.221,0,4.959" transform="translate(0 10.739)" fill="none" stroke="#ff003d" stroke-linecap="round" stroke-linejoin="round" stroke-width="2.5"/>
  </g>
  <path id="Vector-4" data-name="Vector" d="M0,0H36.508V36.508H0Z" fill="none" opacity="0"/>
</svg>
