<svg id="vuesax_linear_clipboard-text" data-name="vuesax/linear/clipboard-text" xmlns="http://www.w3.org/2000/svg" width="35.649" height="35.649" viewBox="0 0 35.649 35.649">
  <g id="clipboard-text">
    <path id="Vector" d="M0,0H10.4" transform="translate(11.883 18.122)" fill="none" stroke="#ff003d" stroke-linecap="round" stroke-linejoin="round" stroke-width="2.5"/>
    <path id="Vector-2" data-name="Vector" d="M0,0H6.506" transform="translate(11.883 24.063)" fill="none" stroke="#ff003d" stroke-linecap="round" stroke-linejoin="round" stroke-width="2.5"/>
    <path id="Vector-3" data-name="Vector" d="M2.971,5.942H8.912c2.971,0,2.971-1.485,2.971-2.971C11.883,0,10.4,0,8.912,0H2.971C1.485,0,0,0,0,2.971S1.485,5.942,2.971,5.942Z" transform="translate(11.883 2.971)" fill="none" stroke="#0077b6" stroke-linecap="round" stroke-linejoin="round" stroke-width="2.5"/>
    <path id="Vector-4" data-name="Vector" d="M19.31,0c4.946.267,7.427,2.094,7.427,8.883V17.8c0,5.942-1.485,8.912-8.912,8.912H8.912C1.485,26.707,0,23.737,0,17.8V8.883C0,2.109,2.481.267,7.427,0" transform="translate(4.456 5.971)" fill="none" stroke="#0077b6" stroke-linecap="round" stroke-linejoin="round" stroke-width="2.5"/>
    <path id="Vector-5" data-name="Vector" d="M0,0H35.649V35.649H0Z" fill="none" opacity="0"/>
  </g>
</svg>
