<svg xmlns="http://www.w3.org/2000/svg" width="33.2" height="33.2" viewBox="0 0 33.2 33.2">
  <g id="vuesax_bold_home" data-name="vuesax/bold/home" transform="translate(-556 -188)">
    <g id="home" transform="translate(556 188)">
      <path id="Vector" d="M26.283,8.314,17.222,1.065a5.209,5.209,0,0,0-6.294-.014L1.867,8.314A5.418,5.418,0,0,0,.055,13.059L1.8,23.489a5.14,5.14,0,0,0,4.939,4.178H21.4a5.22,5.22,0,0,0,4.952-4.192L28.1,13.045A5.558,5.558,0,0,0,26.283,8.314ZM15.106,22.133a1.038,1.038,0,0,1-2.075,0v-4.15a1.038,1.038,0,1,1,2.075,0Z" transform="translate(2.532 2.767)" fill="#00b4d8"/>
      <path id="Vector-2" data-name="Vector" d="M0,0H33.2V33.2H0Z" transform="translate(33.2 33.2) rotate(180)" fill="none" opacity="0"/>
    </g>
  </g>
</svg>
