<svg xmlns="http://www.w3.org/2000/svg" width="36.514" height="36.514" viewBox="0 0 36.514 36.514">
  <g id="vuesax_bold_wallet" data-name="vuesax/bold/wallet" transform="translate(-236 -444)" opacity="0">
    <g id="wallet" transform="translate(236 444)">
      <path id="Vector" d="M0,0H36.514V36.514H0Z" fill="none" opacity="0"/>
      <path id="Vector-2" data-name="Vector" d="M4.571.761V2.282a.76.76,0,0,1-.745.761H1.6a1.575,1.575,0,0,1-1.6-1.384A1.519,1.519,0,0,1,.448.441,1.446,1.446,0,0,1,1.513,0h2.3A.763.763,0,0,1,4.571.761Z" transform="translate(28.063 19.991)" fill="#00b4d8"/>
      <path id="Vector-3" data-name="Vector" d="M23.643,8.824a3.073,3.073,0,0,0-.822,3.012,3.316,3.316,0,0,0,3.241,2.313h1.324a1.526,1.526,0,0,1,1.521,1.521v.289a5.733,5.733,0,0,1-5.72,5.72H5.72A5.733,5.733,0,0,1,0,15.96V5.72A5.683,5.683,0,0,1,2.282,1.156,5.639,5.639,0,0,1,5.72,0H23.186a5.733,5.733,0,0,1,5.72,5.72V6.39a1.526,1.526,0,0,1-1.521,1.521H25.834A3.032,3.032,0,0,0,23.643,8.824Z" transform="translate(3.727 10.483)" fill="#00b4d8"/>
      <path id="Vector-4" data-name="Vector" d="M12.961,4.29a.627.627,0,0,1-.517,1.05L.76,5.325A.756.756,0,0,1,.227,4.032l2.465-2.48a5.363,5.363,0,0,1,7.546,0L12.9,4.245C12.916,4.26,12.946,4.275,12.961,4.29Z" transform="translate(11.685 3.043)" fill="#00b4d8"/>
    </g>
  </g>
</svg>
