<svg xmlns="http://www.w3.org/2000/svg" width="55.118" height="55.118" viewBox="0 0 55.118 55.118">
  <g id="vuesax_bold_money-4" data-name="vuesax/bold/money-4" transform="translate(-665.443 -59.06) rotate(-16)">
    <g id="money-4" transform="translate(620 252)">
      <path id="Vector" d="M0,0H44.562V44.562H0Z" fill="none" opacity="0"/>
      <path id="Vector-2" data-name="Vector" d="M27.851,0H9.284C3.713,0,0,2.785,0,9.284v13c0,6.5,3.713,9.284,9.284,9.284H27.851c5.57,0,9.284-2.785,9.284-9.284v-13C37.135,2.785,33.421,0,27.851,0ZM3.249,9.284A6.046,6.046,0,0,1,9.284,3.249h2.785a1.393,1.393,0,1,1,0,2.785H9.284A3.265,3.265,0,0,0,6.034,9.284v2.785a1.393,1.393,0,1,1-2.785,0Zm8.819,19.031H9.284a6.046,6.046,0,0,1-6.034-6.034V19.5a1.393,1.393,0,1,1,2.785,0v2.785A3.265,3.265,0,0,0,9.284,25.53h2.785a1.393,1.393,0,1,1,0,2.785Zm6.5-6.963a5.57,5.57,0,1,1,5.57-5.57A5.563,5.563,0,0,1,18.567,21.352Zm15.318.928a6.046,6.046,0,0,1-6.034,6.034H25.066a1.393,1.393,0,1,1,0-2.785h2.785A3.265,3.265,0,0,0,31.1,22.281V19.5a1.393,1.393,0,1,1,2.785,0Zm0-10.212a1.393,1.393,0,1,1-2.785,0V9.284a3.265,3.265,0,0,0-3.249-3.249H25.066a1.393,1.393,0,1,1,0-2.785h2.785a6.046,6.046,0,0,1,6.034,6.034Z" transform="translate(3.713 6.499)" fill="#fff"/>
    </g>
  </g>
</svg>
