<svg id="vuesax_linear_message-text" data-name="vuesax/linear/message-text" xmlns="http://www.w3.org/2000/svg" width="37.194" height="37.194" viewBox="0 0 37.194 37.194">
  <g id="message-text">
    <path id="Vector" d="M10.073,26.346H9.3c-6.2,0-9.3-1.55-9.3-9.3V9.3Q0,0,9.3,0H21.7Q31,0,31,9.3v7.749q0,9.3-9.3,9.3h-.775a1.571,1.571,0,0,0-1.24.62l-2.325,3.1a2.2,2.2,0,0,1-3.719,0l-2.325-3.1A1.752,1.752,0,0,0,10.073,26.346Z" transform="translate(3.1 3.1)" fill="none" stroke="#0077b6" stroke-linecap="round" stroke-linejoin="round" stroke-width="2.5"/>
    <path id="Vector-2" data-name="Vector" d="M0,0H15.5" transform="translate(10.848 12.398)" fill="none" stroke="#ff003d" stroke-linecap="round" stroke-linejoin="round" stroke-width="2.5"/>
    <path id="Vector-3" data-name="Vector" d="M0,0H9.3" transform="translate(10.848 20.147)" fill="none" stroke="#ff003d" stroke-linecap="round" stroke-linejoin="round" stroke-width="2.5"/>
    <path id="Vector-4" data-name="Vector" d="M0,0H37.194V37.194H0Z" fill="none" opacity="0"/>
  </g>
</svg>
