<svg xmlns="http://www.w3.org/2000/svg" width="31.469" height="31.469" viewBox="0 0 31.469 31.469">
  <g id="vuesax_linear_home" data-name="vuesax/linear/home" opacity="0">
    <g id="home">
      <path id="Vector" d="M0,3.934V0" transform="translate(15.734 19.668)" fill="none" stroke="#828282" stroke-linecap="round" stroke-linejoin="round" stroke-width="2"/>
      <path id="Vector-2" data-name="Vector" d="M10.586.834,1.5,8.111A4.423,4.423,0,0,0,.044,11.927L1.787,22.364a4.182,4.182,0,0,0,3.986,3.37H20.459a4.207,4.207,0,0,0,3.986-3.37l1.744-10.437a4.5,4.5,0,0,0-1.455-3.816L15.647.847A4.229,4.229,0,0,0,10.586.834Z" transform="translate(2.618 2.863)" fill="none" stroke="#828282" stroke-linecap="round" stroke-linejoin="round" stroke-width="2"/>
      <path id="Vector-3" data-name="Vector" d="M0,0H31.469V31.469H0Z" fill="none" opacity="0"/>
    </g>
  </g>
</svg>
