<svg id="weight-scale" xmlns="http://www.w3.org/2000/svg" width="18.332" height="22" viewBox="0 0 18.332 22">
  <path id="Path_1020" data-name="Path 1020" d="M12,6.75a.736.736,0,0,1-.263-.048.75.75,0,0,1-.439-.965l.75-2a.75.75,0,0,1,1.4.526l-.75,2A.75.75,0,0,1,12,6.75Z" transform="translate(-2.869)"/>
  <path id="Path_1021" data-name="Path 1021" d="M14.136,7H8.2A1.814,1.814,0,0,1,6.5,5.091,4.9,4.9,0,0,1,11.167,0a4.9,4.9,0,0,1,4.667,5.091A1.814,1.814,0,0,1,14.136,7ZM8.2,4.993,14.136,5a3.031,3.031,0,0,0-2.969-3A3.031,3.031,0,0,0,8.2,4.993Z" transform="translate(-2.001)"/>
  <path id="Path_1022" data-name="Path 1022" d="M20.266,5.114A2.792,2.792,0,0,0,17.51,3H15.283V4.81H17.51a.971.971,0,0,1,.965.689,1.041,1.041,0,0,1,.022.308l-.444,3.672-2.2.378A3.4,3.4,0,0,0,13,13.2V20.19H9.333V13.2A3.4,3.4,0,0,0,6.485,9.857L4.28,9.478,3.838,5.83a1.081,1.081,0,0,1,.02-.331.97.97,0,0,1,.965-.689H7.051V3H4.823A2.793,2.793,0,0,0,2.066,5.115a2.923,2.923,0,0,0-.051.9l1.64,13.562A2.734,2.734,0,0,0,6.391,22h9.552a2.73,2.73,0,0,0,2.734-2.408L20.32,6a2.827,2.827,0,0,0-.053-.883Z" transform="translate(-2.001)"/>
</svg>
